<?xml version="1.0" encoding="UTF-8"?>
<svg width="20px" height="19px" viewBox="0 0 20 19" version="1.1" xmlns="http://www.w3.org/2000/svg" xmlns:xlink="http://www.w3.org/1999/xlink">
    <!-- Generator: sketchtool 51.2 (57519) - http://www.bohemiancoding.com/sketch -->
    <title>E1FBB23E-0974-4F19-B57C-FD3F2162B3FD</title>
    <desc>Created with sketchtool.</desc>
    <defs>
        <polygon id="path-1" points="0.2335 0.0691 5.943 0.0691 5.943 4.9751 0.2335 4.9751"></polygon>
    </defs>
    <g id="Page-1" stroke="none" stroke-width="1" fill="none" fill-rule="evenodd">
        <g id="Slices" transform="translate(-1353.000000, -554.000000)">
            <g id="Group-14" transform="translate(1353.000000, 553.000000)">
                <path d="M1.7612,19.9307 C-0.2538,16.3177 0.7992,13.7027 1.7292,11.3947 C2.6572,9.0887 3.4592,7.0967 1.6102,3.9507 L3.3342,2.9367 C5.6822,6.9307 4.5672,9.6997 3.5842,12.1417 C2.7122,14.3077 1.9582,16.1787 3.5082,18.9567 L1.7612,19.9307 Z" id="Fill-1" fill="#D292FF"></path>
                <polygon id="Fill-3" fill="#D292FF" points="1.8594 5.9058 0.0004 5.1688 1.6524 0.9998 5.7104 2.9088 4.8584 4.7188 2.7274 3.7158"></polygon>
                <path d="M8.8777,19.9307 C6.8627,16.3177 7.9167,13.7027 8.8457,11.3947 C9.7737,9.0887 10.5767,7.0967 8.7267,3.9507 L10.4507,2.9367 C12.7987,6.9307 11.6847,9.6997 10.7007,12.1417 C9.8287,14.3077 9.0757,16.1787 10.6247,18.9567 L8.8777,19.9307 Z" id="Fill-5" fill="#D292FF"></path>
                <polygon id="Fill-7" fill="#D292FF" points="8.9758 5.9058 7.1168 5.1688 8.7688 0.9998 12.8268 2.9088 11.9748 4.7188 9.8438 3.7158"></polygon>
                <path d="M15.9944,19.9307 C13.9794,16.3177 15.0324,13.7027 15.9624,11.3947 C16.8904,9.0887 17.6934,7.0967 15.8434,3.9507 L17.5674,2.9367 C19.9154,6.9307 18.8014,9.6997 17.8174,12.1417 C16.9454,14.3077 16.1914,16.1787 17.7414,18.9567 L15.9944,19.9307 Z" id="Fill-9" fill="#D292FF"></path>
                <g id="Group-13" transform="translate(14.000000, 0.930700)">
                    <mask id="mask-2" fill="white">
                        <use xlink:href="#path-1"></use>
                    </mask>
                    <g id="Clip-12"></g>
                    <polygon id="Fill-11" fill="#D292FF" mask="url(#mask-2)" points="2.0925 4.9751 0.2335 4.2381 1.8855 0.0691 5.9435 1.9781 5.0915 3.7881 2.9605 2.7851"></polygon>
                </g>
            </g>
        </g>
    </g>
</svg>