<?xml version="1.0" encoding="UTF-8"?>
<svg width="10px" height="14px" viewBox="0 0 10 14" version="1.1" xmlns="http://www.w3.org/2000/svg" xmlns:xlink="http://www.w3.org/1999/xlink">
    <!-- Generator: sketchtool 51.2 (57519) - http://www.bohemiancoding.com/sketch -->
    <title>461E7B11-4846-4E9C-BA6B-814A89858C5E</title>
    <desc>Created with sketchtool.</desc>
    <defs></defs>
    <g id="Page-1" stroke="none" stroke-width="1" fill="none" fill-rule="evenodd">
        <g id="Slices" transform="translate(-2099.000000, -296.000000)">
            <rect id="Rectangle-34-Copy-4" stroke="#979797" x="2073.5" y="231.5" width="827" height="538" rx="12"></rect>
            <g id="Group-14" transform="translate(2100.000000, 297.000000)" stroke="#2D18B4" stroke-linecap="round" stroke-linejoin="round">
                <path d="M1.08277895,6.31578949e-05 L6.49604211,6.31578949e-05 C7.09414737,6.31578949e-05 7.5792,0.537536842 7.5792,1.20006316 L7.5792,10.8000632 C7.5792,11.4625895 7.09414737,12.0000632 6.49604211,12.0000632 L1.08277895,12.0000632 C0.484673684,12.0000632 0.000252631579,11.4625895 0.000252631579,10.8000632 L0.000252631579,1.20006316 C0.000252631579,0.537536842 0.484673684,6.31578949e-05 1.08277895,6.31578949e-05 Z" id="Stroke-1"></path>
                <path d="M4.91355789,6.31578949e-05 L2.66513684,6.31578949e-05 C2.38913684,6.31578949e-05 2.16555789,0.223642105 2.16555789,0.500273684 C2.16555789,0.776273684 2.38913684,0.999852632 2.66513684,0.999852632 L4.91355789,0.999852632 C5.18955789,0.999852632 5.41376842,0.776273684 5.41376842,0.500273684 C5.41376842,0.223642105 5.18955789,6.31578949e-05 4.91355789,6.31578949e-05 Z" id="Stroke-3" fill="#2D18B4"></path>
            </g>
        </g>
    </g>
</svg>