<?xml version="1.0" encoding="UTF-8"?>
<svg width="561px" height="138px" viewBox="0 0 561 138" version="1.1" xmlns="http://www.w3.org/2000/svg" xmlns:xlink="http://www.w3.org/1999/xlink">
    <!-- Generator: Sketch 52.6 (67491) - http://www.bohemiancoding.com/sketch -->
    <title>Rectangle</title>
    <desc>Created with Sketch.</desc>
    <g id="Page-1" stroke="none" stroke-width="1" fill="none" fill-rule="evenodd">
        <g id="Group-54">
            <g id="Group-53" transform="translate(28.000000, 7.000000)" fill="#FFFFFF">
                <path d="M13.67325,40.23 L64.17,15.65775 L114.669,40.23 L114.669,95.751 L13.67325,95.751 L13.67325,40.23 Z M64.17,7.10542736e-15 L7.531753e-13,32.202 L7.531753e-13,109.908 L100.41075,109.908 L128.34225,124.065 L128.34225,32.202 L64.17,7.10542736e-15 Z" id="Fill-23"></path>
                <polygon id="Fill-24" points="296.09325 87.5745 318.3615 87.5745 318.3615 96.111 285.75 96.111 285.75 40.5 296.09325 40.5"></polygon>
                <path d="M400.7835,51.23025 C400.50225,51.795 400.176,52.19325 399.8025,52.42275 C399.43125,52.65675 398.99025,52.7715 398.4795,52.7715 C397.96425,52.7715 397.386,52.5735 396.747,52.17525 C396.10575,51.777 395.3475,51.33375 394.479,50.84775 C393.60825,50.3595 392.5845,49.9185 391.419,49.52025 C390.25125,49.122 388.8765,48.92625 387.28575,48.92625 C385.85025,48.92625 384.6015,49.09725 383.53725,49.44375 C382.47075,49.788 381.57525,50.2695 380.84625,50.886 C380.11275,51.50025 379.56825,52.23825 379.2105,53.0955 C378.85275,53.95725 378.67275,54.9 378.67275,55.92375 C378.67275,57.231 379.03725,58.32 379.7685,59.193 C380.4975,60.06375 381.465,60.8085 382.66875,61.42275 C383.87475,62.03925 385.24725,62.5905 386.78625,63.07875 C388.32525,63.5625 389.8935,64.08225 391.5,64.63575 C393.09975,65.18475 394.67025,65.826 396.20925,66.55725 C397.74825,67.2885 399.12075,68.211 400.32675,69.327 C401.526,70.44075 402.498,71.8065 403.22925,73.41975 C403.95825,75.03525 404.32275,76.9995 404.32275,79.30575 C404.32275,81.82125 403.893,84.1725 403.03575,86.36175 C402.17625,88.5555 400.92075,90.4635 399.26475,92.09475 C397.61325,93.72375 395.59275,95.004 393.20775,95.94 C390.825,96.87375 388.09575,97.34175 385.01775,97.34175 C383.24925,97.34175 381.50325,97.1685 379.7865,96.8265 C378.0675,96.47775 376.4205,95.985 374.8455,95.3415 C373.26825,94.7025 371.7945,93.93525 370.422,93.03525 C369.0495,92.13975 367.83,91.1385 366.75,90.03375 L369.74925,85.07475 C370.0305,84.717 370.37025,84.4155 370.7685,84.1725 C371.16675,83.92725 371.6055,83.808 372.096,83.808 C372.735,83.808 373.428,84.07125 374.175,84.5955 C374.9175,85.122 375.79275,85.7025 376.8075,86.346 C377.81775,86.985 379.0125,87.56775 380.385,88.09425 C381.753,88.62075 383.40225,88.88175 385.32375,88.88175 C388.27125,88.88175 390.555,88.18425 392.1705,86.787 C393.786,85.392 394.59375,83.38275 394.59375,80.76825 C394.59375,79.30575 394.22925,78.11325 393.498,77.19075 C392.76675,76.2705 391.79925,75.492 390.59325,74.862 C389.3895,74.23875 388.01475,73.7055 386.48025,73.269 C384.94125,72.83475 383.37525,72.36 381.789,71.84475 C380.19825,71.33175 378.63225,70.7175 377.0955,69.99975 C375.5565,69.282 374.184,68.346 372.98025,67.19175 C371.772,66.0375 370.809,64.59525 370.0755,62.865 C369.34425,61.1325 368.97975,58.9995 368.97975,56.4615 C368.97975,54.4365 369.38475,52.46325 370.1925,50.5395 C371.00025,48.61575 372.17925,46.9125 373.7295,45.423 C375.282,43.938 377.1855,42.7455 379.44,41.84775 C381.699,40.95 384.27525,40.5 387.171,40.5 C390.45375,40.5 393.48,41.01525 396.2475,42.04125 C399.01725,43.065 401.37525,44.50275 403.32375,46.34775 L400.7835,51.23025 Z" id="Fill-25"></path>
                <path d="M475.03575,56.691 C475.36875,55.845 475.71075,54.8595 476.05725,53.73 C476.39925,52.60275 476.757,51.38325 477.1125,50.076 C477.47475,51.38325 477.83925,52.596 478.2105,53.70975 C478.58175,54.82575 478.92375,55.7955 479.2275,56.6145 L485.99775,75.114 L468.27,75.114 L475.03575,56.691 Z M455.8095,96.111 L460.665,96.111 L462.50775,90.909 L465.615,82.41975 L488.65275,82.41975 L492.804,93.7665 C492.8085,93.77325 492.81525,93.78225 492.81975,93.79125 L493.67025,96.111 L498.42675,96.111 L504.2655,96.111 L482.42025,40.5 L471.843,40.5 L450,96.111 L451.6875,96.111 L455.8095,96.111 Z" id="Fill-26"></path>
                <polygon id="Fill-27" points="218.25 73.21275 231.984 73.21275 231.984 65.25 218.25 65.25"></polygon>
                <polygon id="Fill-28" points="237.57075 40.5 202.5 40.5 202.5 96.111 237.57075 96.111 237.57075 87.84 212.91975 87.84 212.91975 75.114 212.91975 72.11475 212.91975 64.152 212.91975 62.595 212.91975 48.7305 237.57075 48.7305"></polygon>
            </g>
            <rect id="Rectangle" x="0" y="0" width="561" height="138"></rect>
        </g>
    </g>
</svg>